<svg width="290" height="114" viewBox="0 0 290 114" fill="none" xmlns="http://www.w3.org/2000/svg">
<path d="M0.191052 91.8239V73.6598L45.7344 1.90909H61.3949V27.0511H52.1264L23.4155 72.4879V73.3402H88.1349V91.8239H0.191052ZM52.5526 111V86.2841L52.9787 78.2408V1.90909H74.6051V111H52.5526ZM144.276 113.397C135.114 113.362 127.23 111.107 120.625 106.632C114.056 102.158 108.995 95.6768 105.444 87.1896C101.929 78.7024 100.189 68.4929 100.224 56.5611C100.224 44.6648 101.982 34.5263 105.498 26.1456C109.049 17.7649 114.109 11.3906 120.679 7.02273C127.284 2.61932 135.15 0.41761 144.276 0.41761C153.402 0.41761 161.25 2.61932 167.82 7.02273C174.425 11.4261 179.503 17.8182 183.054 26.1989C186.605 34.544 188.363 44.6648 188.328 56.5611C188.328 68.5284 186.552 78.7557 183.001 87.2429C179.485 95.7301 174.443 102.211 167.873 106.685C161.304 111.16 153.438 113.397 144.276 113.397ZM144.276 94.2741C150.526 94.2741 155.515 91.1314 159.244 84.8459C162.973 78.5604 164.819 69.1321 164.784 56.5611C164.784 48.2869 163.931 41.3977 162.227 35.8935C160.558 30.3892 158.179 26.2521 155.089 23.4822C152.035 20.7124 148.431 19.3274 144.276 19.3274C138.061 19.3274 133.09 22.4347 129.361 28.6491C125.632 34.8636 123.75 44.1676 123.715 56.5611C123.715 64.9418 124.549 71.9375 126.218 77.5483C127.923 83.1236 130.32 87.3139 133.409 90.1193C136.499 92.8892 140.121 94.2741 144.276 94.2741ZM201.123 91.8239V73.6598L246.666 1.90909H262.327V27.0511H253.058L224.347 72.4879V73.3402H289.067V91.8239H201.123ZM253.484 111V86.2841L253.91 78.2408V1.90909H275.537V111H253.484Z" fill="#4F46E5"/>
</svg>
