<svg width="503" height="210" viewBox="0 0 503 210" fill="none" xmlns="http://www.w3.org/2000/svg">
<path d="M60.7936 168.936C50.3355 169.622 41.1455 167.994 33.2236 164.051C25.3436 160.06 19.0769 154.205 14.4234 146.487C9.7669 138.723 7.09119 129.545 6.39625 118.952C5.69542 108.27 7.14763 98.7983 10.7529 90.5379C14.3551 82.2327 19.8033 75.6095 27.0972 70.6682C34.4332 65.6792 43.3302 62.8416 53.7883 62.1555C64.2464 61.4694 73.4154 63.1218 81.2954 67.1126C89.2173 71.0555 95.5064 76.9088 100.163 84.6722C104.816 92.3907 107.494 101.591 108.194 112.274C108.889 122.867 107.436 132.316 103.833 140.621C100.228 148.881 94.7576 155.506 87.4217 160.495C80.1278 165.436 71.2517 168.25 60.7936 168.936ZM59.4707 146.709C64.2284 146.397 68.1124 144.79 71.1225 141.888C74.1297 138.941 76.2866 135.058 77.5932 130.239C78.9448 125.417 79.4233 119.999 79.0287 113.984C78.6341 107.97 77.4518 102.661 75.4819 98.0567C73.5569 93.4498 70.9112 89.8819 67.5447 87.353C64.1783 84.8242 60.1162 83.7158 55.3584 84.0279C50.5558 84.343 46.606 85.977 43.509 88.9299C40.457 91.8799 38.2552 95.7658 36.9036 100.588C35.597 105.407 35.1409 110.823 35.5355 116.838C35.9301 122.852 37.0899 128.163 39.015 132.77C40.9849 137.374 43.6755 140.939 47.0868 143.465C50.5401 145.943 54.668 147.024 59.4707 146.709ZM175.071 161.439C164.613 162.125 155.423 160.496 147.501 156.553C139.621 152.563 133.355 146.708 128.701 138.989C124.045 131.226 121.369 122.048 120.674 111.455C119.973 100.773 121.425 91.3011 125.031 83.0407C128.633 74.7355 134.081 68.1123 141.375 63.171C148.711 58.182 157.608 55.3444 168.066 54.6583C178.524 53.9722 187.693 55.6245 195.573 59.6154C203.495 63.5583 209.784 69.4115 214.441 77.175C219.094 84.8935 221.771 94.0941 222.472 104.777C223.167 115.369 221.714 124.818 218.111 133.124C214.506 141.384 209.035 148.009 201.7 152.998C194.406 157.939 185.529 160.753 175.071 161.439ZM173.748 139.212C178.506 138.9 182.39 137.293 185.4 134.391C188.407 131.444 190.564 127.561 191.871 122.742C193.223 117.92 193.701 112.502 193.306 106.487C192.912 100.473 191.73 95.1634 189.76 90.5595C187.835 85.9526 185.189 82.3847 181.823 79.8558C178.456 77.3269 174.394 76.2186 169.636 76.5307C164.834 76.8458 160.884 78.4798 157.787 81.4327C154.735 84.3827 152.533 88.2686 151.181 93.0904C149.875 97.9093 149.419 103.326 149.813 109.341C150.208 115.355 151.368 120.666 153.293 125.273C155.263 129.877 157.953 133.442 161.365 135.967C164.818 138.446 168.946 139.527 173.748 139.212ZM245.036 193.767L235.707 51.573L263.985 49.7179L265.124 67.0882L266.403 67.0043C267.478 64.139 269.11 61.192 271.3 58.1633C273.533 55.0868 276.516 52.4569 280.249 50.2737C284.024 48.0425 288.807 46.7371 294.597 46.3572C302.138 45.8625 309.225 47.381 315.857 50.9127C322.487 54.3995 327.969 59.9676 332.302 67.617C336.633 75.2215 339.187 84.9485 339.964 96.798C340.721 108.333 339.497 118.196 336.293 126.385C333.131 134.526 328.497 140.848 322.391 145.35C316.327 149.805 309.368 152.29 301.513 152.805C295.948 153.171 291.152 152.561 287.126 150.977C283.145 149.39 279.829 147.286 277.178 144.665C274.524 141.999 272.452 139.273 270.962 136.486L270.086 136.543L273.717 191.886L245.036 193.767ZM267.175 101.438C267.578 107.587 268.783 112.895 270.789 117.361C272.795 121.828 275.498 125.234 278.897 127.581C282.294 129.882 286.304 130.881 290.927 130.578C295.595 130.272 299.461 128.733 302.525 125.963C305.585 123.148 307.796 119.396 309.156 114.709C310.559 109.974 311.063 104.599 310.668 98.5848C310.276 92.6151 309.101 87.4181 307.143 82.9937C305.185 78.5693 302.506 75.1839 299.107 72.8375C295.707 70.4911 291.651 69.4725 286.938 69.7817C282.27 70.088 278.401 71.5814 275.332 74.2621C272.307 76.9398 270.09 80.6013 268.682 85.2465C267.274 89.8918 266.771 95.289 267.175 101.438ZM441.666 67.6771L415.515 71.0156C414.919 68.8008 413.821 66.8443 412.222 65.1461C410.62 63.403 408.572 62.0724 406.078 61.1541C403.625 60.1881 400.738 59.814 397.417 60.0319C392.973 60.3234 389.287 61.5119 386.359 63.5973C383.427 65.6378 382.063 68.2066 382.266 71.3036C382.428 73.7723 383.553 75.7946 385.64 77.3707C387.726 78.9467 391.205 80.0934 396.075 80.8106L415.04 83.353C425.229 84.7581 432.943 87.5878 438.181 91.8421C443.418 96.0964 446.281 101.949 446.77 109.4C447.215 116.177 445.608 122.256 441.949 127.635C438.334 133.011 433.166 137.362 426.442 140.688C419.76 143.966 411.931 145.9 402.954 146.488C389.264 147.387 378.17 145.252 369.672 140.085C361.216 134.869 355.968 127.37 353.929 117.587L382.042 114.255C383.168 118.373 385.442 121.425 388.863 123.409C392.281 125.348 396.548 126.15 401.665 125.815C406.692 125.485 410.668 124.255 413.594 122.125C416.561 119.946 417.966 117.307 417.808 114.207C417.592 111.607 416.352 109.547 414.089 108.028C411.823 106.464 408.416 105.38 403.868 104.777L385.725 102.383C375.494 101.026 367.746 98.0182 362.482 93.3599C357.263 88.6987 354.4 82.508 353.893 74.7878C353.457 68.1449 354.877 62.3043 358.153 57.2661C361.474 52.225 366.325 48.1878 372.707 45.1545C379.135 42.1184 386.769 40.3102 395.612 39.7301C408.673 38.8732 419.133 40.9593 426.991 45.9884C434.893 51.0145 439.785 58.244 441.666 67.6771ZM490.161 0.259838L493.869 96.9788L469.227 98.5954L460.2 2.2254L490.161 0.259838ZM484.375 140.876C479.932 141.168 476.013 139.847 472.62 136.914C469.224 133.937 467.403 130.224 467.157 125.778C466.823 121.382 468.147 117.509 471.127 114.158C474.108 110.807 477.82 108.986 482.264 108.694C486.528 108.414 490.379 109.739 493.817 112.669C497.254 115.599 499.14 119.262 499.473 123.658C499.623 126.623 499.016 129.39 497.651 131.959C496.329 134.48 494.505 136.56 492.178 138.201C489.849 139.796 487.248 140.688 484.375 140.876Z" fill="#FF5050"/>
</svg>
